# xmcd CD database file generated by OrangeCD 5.2
#
# Track frame offsets:
#	150
#	11124
#	23407
#	37994
#	50514
#	59074
#	72781
#	86278
#	99695
#	114585
#
# Disc length: 1723 seconds
#
# Revision: 0
# Processed by: cddbd v1.5.1PL0 Copyright (c) Steve Scherf et al.
# Submitted via: OrangeCD 5.2
#
DISCID=7b06b90a
DTITLE=Danny Davis and Willie Nelson - Danny Davis and Willie Nelson
DYEAR=1900
DGENRE=
TTITLE0=Night Life
TTITLE1=December Day
TTITLE2=Rainy Day Blues
TTITLE3=Hello Walls
TTITLE4=The Local Memory
TTITLE5=Funny How Time Slips Away
TTITLE6=Bloody Merry Morning
TTITLE7=My Own Peculiar Way
TTITLE8=Good Hearted Woman
TTITLE9=Yesterday's Wine
EXTD=
EXTT0=
EXTT1=
EXTT2=
EXTT3=
EXTT4=
EXTT5=
EXTT6=
EXTT7=
EXTT8=
EXTT9=
PLAYORDER=
